<?xml version="1.0" encoding="UTF-8"?>
<svg id="Layer_6" data-name="Layer 6" xmlns="http://www.w3.org/2000/svg" xmlns:xlink="http://www.w3.org/1999/xlink" viewBox="0 0 328.95 242.68">
  <defs>
    <style>
      .cls-1 {
        stroke-width: 5px;
      }

      .cls-1, .cls-2, .cls-3, .cls-4, .cls-5, .cls-6, .cls-7, .cls-8, .cls-9, .cls-10, .cls-11, .cls-12, .cls-13, .cls-14, .cls-15, .cls-16 {
        stroke-miterlimit: 10;
      }

      .cls-1, .cls-2, .cls-3, .cls-4, .cls-5, .cls-6, .cls-7, .cls-8, .cls-9, .cls-10, .cls-13, .cls-14, .cls-15, .cls-16 {
        stroke: #00004f;
      }

      .cls-1, .cls-2, .cls-3, .cls-7, .cls-12, .cls-13, .cls-16 {
        fill: none;
      }

      .cls-2 {
        stroke-width: 4px;
      }

      .cls-3 {
        stroke-width: 7px;
      }

      .cls-4 {
        stroke-width: 3.32px;
      }

      .cls-4, .cls-5, .cls-6, .cls-10, .cls-14, .cls-15 {
        fill: #24bad3;
      }

      .cls-5 {
        stroke-width: 2.63px;
      }

      .cls-6 {
        stroke-width: 2.58px;
      }

      .cls-17 {
        fill: url(#linear-gradient-8);
      }

      .cls-18 {
        fill: url(#linear-gradient-7);
      }

      .cls-19 {
        fill: url(#linear-gradient-5);
      }

      .cls-20 {
        fill: url(#linear-gradient-6);
      }

      .cls-21 {
        fill: url(#linear-gradient-9);
      }

      .cls-22 {
        fill: url(#linear-gradient-4);
      }

      .cls-23 {
        fill: url(#linear-gradient-3);
      }

      .cls-8 {
        fill: url(#linear-gradient-2);
        stroke-width: 3px;
      }

      .cls-9 {
        stroke-width: 1.32px;
      }

      .cls-9, .cls-11 {
        fill: #00004f;
      }

      .cls-10 {
        stroke-width: 1.6px;
      }

      .cls-11 {
        stroke: #231f20;
        stroke-width: 1.85px;
      }

      .cls-24 {
        fill: url(#linear-gradient-10);
      }

      .cls-25 {
        fill: url(#linear-gradient-11);
      }

      .cls-26 {
        fill: url(#linear-gradient-12);
      }

      .cls-27 {
        fill: url(#linear-gradient-13);
      }

      .cls-28 {
        fill: url(#linear-gradient-14);
      }

      .cls-12 {
        stroke: url(#linear-gradient);
        stroke-width: 4.05px;
      }

      .cls-13 {
        stroke-width: 2.24px;
      }

      .cls-14 {
        stroke-width: 3.47px;
      }

      .cls-15 {
        stroke-width: 3.64px;
      }

      .cls-16 {
        stroke-width: 2px;
      }
    </style>
    <linearGradient id="linear-gradient" x1="130.31" y1="-40.57" x2="255.5" y2="176.26" gradientUnits="userSpaceOnUse">
      <stop offset=".46" stop-color="#dd1877"/>
      <stop offset=".82" stop-color="#dd1877"/>
    </linearGradient>
    <linearGradient id="linear-gradient-2" x1="97.52" y1="14.2" x2="97.52" y2="133.35" gradientUnits="userSpaceOnUse">
      <stop offset=".07" stop-color="#fff33b"/>
      <stop offset=".28" stop-color="#fcbf13"/>
      <stop offset=".44" stop-color="#f3903f"/>
      <stop offset=".63" stop-color="#e94b66"/>
      <stop offset=".9" stop-color="#e93e3a"/>
    </linearGradient>
    <linearGradient id="linear-gradient-3" x1="83.04" y1="174.16" x2="103.29" y2="209.22" gradientUnits="userSpaceOnUse">
      <stop offset=".24" stop-color="#f8962a"/>
      <stop offset=".82" stop-color="#ed2086"/>
    </linearGradient>
    <linearGradient id="linear-gradient-4" x1="118.63" y1="175.08" x2="137.82" y2="208.31" xlink:href="#linear-gradient-3"/>
    <linearGradient id="linear-gradient-5" x1="152.24" y1="174.69" x2="172.49" y2="209.75" xlink:href="#linear-gradient-3"/>
    <linearGradient id="linear-gradient-6" x1="188.75" y1="175.08" x2="207.94" y2="208.31" xlink:href="#linear-gradient-3"/>
    <linearGradient id="linear-gradient-7" x1="223.28" x2="243.52" xlink:href="#linear-gradient-3"/>
    <linearGradient id="linear-gradient-8" x1="78.58" y1="139.16" x2="93.76" y2="165.47" xlink:href="#linear-gradient-3"/>
    <linearGradient id="linear-gradient-9" x1="106.35" y1="140.14" x2="119.95" y2="163.69" xlink:href="#linear-gradient-3"/>
    <linearGradient id="linear-gradient-10" x1="131.16" y1="139.16" x2="145.56" y2="164.09" xlink:href="#linear-gradient-3"/>
    <linearGradient id="linear-gradient-11" x1="158.94" y1="140.14" x2="172.54" y2="163.69" xlink:href="#linear-gradient-3"/>
    <linearGradient id="linear-gradient-12" x1="187.22" y1="138.08" x2="200.03" y2="160.25" xlink:href="#linear-gradient-3"/>
    <linearGradient id="linear-gradient-13" x1="211.13" y1="139.45" x2="225.53" y2="164.38" xlink:href="#linear-gradient-3"/>
    <linearGradient id="linear-gradient-14" x1="237.72" y1="141.12" x2="250.52" y2="163.3" xlink:href="#linear-gradient-3"/>
  </defs>
  <rect class="cls-11" x="32.01" y="17.32" width="277.15" height="200.57"/>
  <polygon class="cls-12" points="16.32 29.7 323.1 29.7 169.71 222.54 16.32 29.7"/>
  <circle class="cls-8" cx="97.52" cy="73.78" r="59.57"/>
  <line class="cls-7" x1="37.95" y1="37.48" x2="155.93" y2="37.48"/>
  <line class="cls-16" x1="38.54" y1="51.79" x2="156.51" y2="51.79"/>
  <line class="cls-2" x1="38.54" y1="66.85" x2="156.51" y2="66.85"/>
  <line class="cls-1" x1="36.32" y1="86.49" x2="157.96" y2="86.49"/>
  <line class="cls-3" x1="39.98" y1="107.89" x2="157.96" y2="107.89"/>
  <line class="cls-3" x1="36.32" y1="131.18" x2="154.29" y2="131.18"/>
  <path class="cls-15" d="M134.99,69.32h0s-33.26,19.24-33.26,19.24h0c-1.65.38-5.7,1.56-8.09,5.18-3.45,5.23-2.13,13.55,4.02,19.6,2.35.91,4.71,1.83,7.06,2.74,0,0,0,0,0,0,2.39-2.11,9.24-7.98,18.72-9.25,2.7-.36,7.87-.65,14.22,1.65,5.09.37,10.17.75,15.26,1.12,4.07-1.58,6.24-2.42,6.24-2.42,0,0,1.63-10.26,4.6-28.99-1.8-2.19-3.6-4.38-5.4-6.57-.93-.67-1.95-1.3-3.08-1.85-8.06-3.96-16.57-1.71-20.3-.45Z"/>
  <path class="cls-15" d="M133.91,63.72c-1.96-2.37-4.22-5.65-6.02-9.88-3.67-8.59-3.48-16.43-3.04-20.66-1.77,4.35-3.95,11.22-4.23,19.87-.24,7.31.96,13.36,2.13,17.53,3.72-2.29,7.44-4.57,11.17-6.86Z"/>
  <path class="cls-6" d="M118.41,74.29c-1.39-1.68-2.99-4-4.27-7-2.6-6.09-2.46-11.65-2.15-14.64-1.25,3.08-2.8,7.95-3,14.08-.17,5.18.68,9.47,1.51,12.42,2.64-1.62,5.28-3.24,7.91-4.86Z"/>
  <polygon class="cls-10" points="149.58 68.17 161.89 57.79 181.63 54.62 173.77 66.87 149.58 68.17"/>
  <path class="cls-14" d="M168.22,82.08h0s-4.81,41.66-4.81,41.68c8.57-2.87,17.14-5.73,25.7-8.6-.14-.64-.3-1.28-.47-1.92-2.23-8.45-7.45-19.8-20.43-31.16Z"/>
  <path class="cls-14" d="M191.09,118.99c-9.11,3.18-18.21,6.37-27.32,9.55.89,2.27,1.76,4.76,2.55,7.45,1.12,3.79,1.89,7.35,2.43,10.57,9.02-2.41,18.04-4.81,27.06-7.22-.07-3.04-.43-6.85-1.48-11.12-.9-3.65-2.09-6.75-3.24-9.23Z"/>
  <path class="cls-14" d="M197.49,144.2c-9.2,2.4-18.4,4.81-27.6,7.21,1.17,2.58,2.45,6.06,3.23,10.32.81,4.41.83,8.25.63,11.14,1.7-1.02,6.21-3.41,12.31-3.04,4.65.28,8.06,2.04,9.76,3.08,1.02-3.44,1.99-7.76,2.4-12.79.52-6.35,0-11.8-.72-15.92Z"/>
  <path class="cls-14" d="M158.87,112.36c-.65,2.59-1.27,6.27-1.05,10.68.26,5.18,1.58,9.3,2.67,11.98-7.23,1.01-14.47,2.02-21.7,3.03,2.27-7.81,4.53-15.62,6.8-23.42,1.59.34,4.35.71,7.64,0,2.49-.54,4.4-1.51,5.63-2.27Z"/>
  <path class="cls-14" d="M161.78,139.39l-22.88,3.69,6.49,21.43c6.13-5.08,12.25-10.17,18.38-15.25-.66-3.29-1.32-6.58-1.98-9.88Z"/>
  <path class="cls-4" d="M165.18,154.12c-1.97,2.12-4.17,4.31-6.61,6.51-4.05,3.66-8.01,6.69-11.68,9.19,1.49,2.31,2.98,4.74,4.44,7.28,3.51,6.09,6.4,11.99,8.79,17.53,2.87-6.28,5.75-12.55,8.62-18.83.28-3.34.3-7.9-.81-13.11-.72-3.38-1.74-6.26-2.75-8.58Z"/>
  <ellipse class="cls-5" cx="133.91" cy="84.89" rx="5.59" ry="2.74" transform="translate(-23.73 101.91) rotate(-38.53)"/>
  <ellipse class="cls-9" cx="100.37" cy="98.89" rx="2.79" ry="1.37" transform="translate(-36 63.43) rotate(-30)"/>
  <path class="cls-13" d="M102.89,89.31c4.18,2.33,5.94,5.34,6.61,6.69,1.08,2.18,1.35,4.17,1.65,6.32.45,3.3.3,6.07.08,7.93"/>
  <path class="cls-13" d="M98.81,112.36c4.21-2.25,8.42-4.5,12.63-6.75h0"/>
  <path class="cls-15" d="M170.9,76.47h0s26.02-2.22,29.21,1.99c.6.79.98,1.58.98,1.58.94,2.14.23,3.9,2.73,7.59.97,1.42,3.85,5.67,9.3,7.15.62.17,8.14,2.1,11.45-1.68,4.34-4.98-.54-17.6-.54-17.6h0s3.65,4.43,4.18,5.08c3.2,3.97,8.56,14.9,4.93,20.1-4.21,6.05-19.19,2.53-19.57,5.75,0,.03,0,.06,0,.12-.13,3.97,8.76,9.91,15.19,8.49,0,0,7.5-1.66,13.83-17.15.11.41.28,1.08.46,1.91.95,4.42,3.08,14.26-1.9,20.94-2.01,2.69-4.48,3.92-6.29,4.85-7.52,3.88-15,2.19-17.34,1.57,1.33,1.28,7.1,6.54,14.87,5.81,2.93-.28,5.05-1.3,6.13-1.83,6.76-3.33,9.76-9.63,10.81-12.19.14,1.99.54,10.6-5.56,17.4-6.56,7.31-17.95,9.52-28.34,5.25.05.07.07.11.07.11,0,0,9.74,8.12,17.9,7.96,3.56-.07,8.54-1.75,14.45-9.1.03,1.66.04,10.07-5.98,14.72-3.07,2.37-6.43,2.78-9.84,3.19,0,0-4.41.54-17.08-1.55,0,0,0,0,0,0-3.27-.13-7.08,2.35-11.46,9.57,1.71-9.34,4.6-31.34-4.1-53.31-4.17-10.54-9.9-18.26-10.76-19.41-6.21-8.27-12.87-13.82-17.73-17.28Z"/>
  <path class="cls-13" d="M117.16,80.57h0c1.01,1.1,2.39,2.91,3,5.43,1.08,4.42-.82,8.44-2.44,11.91-.74,1.58-.8,1.36-4.29,7.72-.89,1.62-1.61,2.96-2.1,3.87"/>
  <path class="cls-13" d="M162.49,79.16h0c-7.01,2.94-11.89,6.55-14.91,9.15-3.2,2.76-5.44,5.37-6.99,7.15-2.69,3.1-6.27,7.23-7.91,10.98-.35-.06-.7-.12-1.05-.18"/>
  <path class="cls-23" d="M107.99,206.51h-12.7v-4.23h-4.23v-4.23h-4.23v8.47h-8.47v-29.64h8.47v12.7h4.23v-4.23h4.23v-4.23h4.23v-4.23h8.47v4.23h-4.23v4.23h-4.23v4.23h-4.23v4.23h4.23v4.23h4.23v4.23h4.23v4.23Z"/>
  <path class="cls-22" d="M140.93,181.1h-8.47v21.17h8.47v4.23h-25.41v-4.23h8.47v-21.17h-8.47v-4.23h25.41v4.23Z"/>
  <path class="cls-19" d="M178.1,206.51h-12.7v-4.23h-4.23v-4.23h-4.23v8.47h-8.47v-29.64h25.41v4.23h4.23v12.7h-8.47v4.23h4.23v4.23h4.23v4.23ZM169.64,189.57v-8.47h-12.7v12.7h8.47v-4.23h4.23Z"/>
  <path class="cls-20" d="M211.05,181.1h-8.47v21.17h8.47v4.23h-25.41v-4.23h8.47v-21.17h-8.47v-4.23h25.41v4.23Z"/>
  <path class="cls-18" d="M248.22,206.51h-8.47v-4.23h-4.23v-4.23h-4.23v-4.23h-4.23v12.7h-8.47v-29.64h8.47v4.23h4.23v4.23h4.23v4.23h4.23v-12.7h8.47v29.64Z"/>
  <path class="cls-17" d="M97.98,163.03h-9.53v-3.18h-3.18v-3.18h-3.18v6.35h-6.35v-22.24h19.06v3.18h3.18v9.53h-6.35v3.18h3.18v3.18h3.18v3.18ZM91.62,150.33v-6.35h-9.53v9.53h6.35v-3.18h3.18Z"/>
  <path class="cls-21" d="M124.27,159.86h-3.18v3.18h-15.88v-3.18h-3.18v-15.88h3.18v-3.18h15.88v3.18h3.18v15.88ZM117.92,159.86v-15.88h-9.53v15.88h9.53Z"/>
  <path class="cls-24" d="M150.56,159.86h-3.18v3.18h-19.06v-22.24h19.06v3.18h3.18v6.35h-3.18v3.18h3.18v6.35ZM144.21,150.33v-6.35h-9.53v6.35h9.53ZM144.21,159.86v-6.35h-9.53v6.35h9.53Z"/>
  <path class="cls-25" d="M176.86,159.86h-3.18v3.18h-15.88v-3.18h-3.18v-15.88h3.18v-3.18h15.88v3.18h3.18v15.88ZM170.5,159.86v-15.88h-9.53v15.88h9.53Z"/>
  <path class="cls-26" d="M201.56,143.97h-6.35v19.06h-6.35v-19.06h-6.35v-3.18h19.06v3.18Z"/>
  <path class="cls-27" d="M227.86,143.97h-6.35v15.88h6.35v3.18h-19.06v-3.18h6.35v-15.88h-6.35v-3.18h19.06v3.18Z"/>
  <path class="cls-28" d="M254.15,159.86h-3.18v3.18h-12.71v-3.18h-3.18v-3.18h-3.18v-9.53h3.18v-3.18h3.18v-3.18h12.71v3.18h3.18v3.18h-6.35v-3.18h-6.35v3.18h-3.18v9.53h3.18v3.18h6.35v-3.18h6.35v3.18Z"/>
</svg>